<svg width="198" height="198" viewBox="0 0 198 198" fill="none" xmlns="http://www.w3.org/2000/svg">
<path d="M88.5078 175.137C129.653 175.137 163.008 141.558 163.008 100.137C163.008 58.7154 129.653 25.1367 88.5078 25.1367C47.3626 25.1367 14.0078 58.7154 14.0078 100.137C14.0078 141.558 47.3626 175.137 88.5078 175.137Z" fill="#F7F7FF"/>
<path d="M168.243 52.3822L149.847 38.017C148.558 37.0808 146.637 37.2687 145.556 38.438L85.2772 103.581L65.0114 85.1017C63.8353 84.028 61.9694 84.071 60.8447 85.1986L44.9825 100.572C43.8578 101.699 43.899 103.484 45.0749 104.559L85.6347 141.628C86.8099 142.703 88.641 142.625 89.7222 141.457C102.972 127.134 155.367 70.5199 168.616 56.1973C169.699 55.0273 169.531 53.3193 168.243 52.3822Z" fill="#5C47F9"/>
</svg>
